<?xml version="1.0" encoding="utf-8"?>
<!-- Generator: Adobe Illustrator 21.1.0, SVG Export Plug-In . SVG Version: 6.00 Build 0)  -->
<svg version="1.1" id="Layer_1" xmlns="http://www.w3.org/2000/svg" xmlns:xlink="http://www.w3.org/1999/xlink" x="0px" y="0px"
	 viewBox="0 0 100 115" style="enable-background:new 0 0 100 115;" xml:space="preserve">
<style type="text/css">
	.st0{fill:#FFFFFF;}
	.st1{fill:#1295D2;}
</style>
<g>
	<g>
		<path class="st0" d="M50,113.5c-1.1,0-2.2-0.3-3.2-0.9L3.2,87.5c-2-1.1-3.2-3.3-3.2-5.5V31.6c0-2.3,1.2-4.4,3.2-5.5L46.8,0.9
			c2-1.1,4.4-1.1,6.4,0L96.8,26c2,1.1,3.2,3.3,3.2,5.5v50.3c0,2.3-1.2,4.4-3.2,5.5l-43.6,25.2C52.2,113.2,51.1,113.5,50,113.5z"/>
	</g>
	<g>
		<path class="st1" d="M52.7,60.3c-1.8,0.5-3.7,0.5-5.5,0L26.8,54c-0.7,0.9-1.1,2.3-1.2,4c0.5,0.3,0.9,0.6,1.2,1.1
			c0.3,0.5,0.4,1,0.4,1.6s-0.2,1.2-0.5,1.7c-0.3,0.5-0.7,0.9-1.2,1.2L27.2,76c0,0.3-0.1,0.5-0.2,0.7c-0.1,0.2-0.3,0.3-0.6,0.3h-4.9
			c-0.3,0-0.5-0.1-0.6-0.3c-0.1-0.2-0.2-0.4-0.2-0.7l1.6-12.5c-0.5-0.3-0.9-0.7-1.2-1.2c-0.3-0.5-0.5-1.1-0.5-1.7s0.2-1.2,0.5-1.7
			c0.3-0.5,0.7-0.9,1.2-1.2c0.1-2,0.6-3.6,1.3-4.9l-4.5-1.3c-0.7-0.2-1.3-0.6-1.5-1.3s-0.3-1.4,0-2s0.8-1.1,1.5-1.3l28-8.6
			c1.8-0.5,3.7-0.5,5.5,0l28,8.6c0.7,0.2,1.3,0.6,1.5,1.3s0.3,1.4,0,2s-0.8,1.1-1.5,1.3L52.7,60.3z M53.6,63.4
			c-2.4,0.7-4.9,0.7-7.3,0L31,58.6l-1.3,8.5c0,1.1,0.9,2.2,2.7,3.2c1.8,1,4.3,1.8,7.4,2.4c3.1,0.6,6.5,0.9,10.1,0.9
			c3.7,0,7-0.3,10.1-0.9c3.1-0.6,5.6-1.4,7.4-2.4c1.8-1,2.7-2.1,2.7-3.2l-1.3-8.5l-15.2,4.8H53.6z"/>
	</g>
</g>
</svg>
