<?xml version="1.0" encoding="utf-8"?>
<!-- Generator: Adobe Illustrator 21.1.0, SVG Export Plug-In . SVG Version: 6.00 Build 0)  -->
<svg version="1.1" id="Layer_1" xmlns="http://www.w3.org/2000/svg" xmlns:xlink="http://www.w3.org/1999/xlink" x="0px" y="0px"
	 viewBox="0 0 100 115" style="enable-background:new 0 0 100 115;" xml:space="preserve">
<style type="text/css">
	.st0{fill:#FFFFFF;}
	.st1{fill:#1295D2;}
</style>
<g>
	<g>
		<path class="st0" d="M50,113.5c-1.1,0-2.2-0.3-3.2-0.9L3.2,87.5c-2-1.1-3.2-3.3-3.2-5.5V31.6c0-2.3,1.2-4.4,3.2-5.5L46.8,0.9
			c2-1.1,4.4-1.1,6.4,0L96.8,26c2,1.1,3.2,3.3,3.2,5.5v50.3c0,2.3-1.2,4.4-3.2,5.5l-43.6,25.2C52.2,113.2,51.1,113.5,50,113.5z"/>
	</g>
	<g>
		<path class="st1" d="M79.6,57.2c2,0,3.5,0.7,4.7,2.2c1,1.3,1.5,3,1.5,4.9c0,2-0.5,3.6-1.6,4.9c-1.1,1.3-2.5,1.9-4.4,1.9
			c-1,0-2-0.2-2.8-0.7c-0.5-0.2-1.2-0.7-2.1-1.4c-0.9-0.7-1.6-1.1-2.1-1.4c-0.8-0.4-1.6-0.5-2.4-0.5c-1.5,0-2.6,0.7-3.3,2.1
			c-0.5,1.1-0.7,2.6-0.7,4.5c0.1,1.4,0.3,2.9,0.5,4.5l0.5,2.1c-0.9,0-2.7,0.1-5.2,0.4c-4.6,0.6-7.8,0.8-9.7,0.5
			c-3.2-0.3-4.8-1.6-4.8-3.8c0-0.8,0.2-1.6,0.5-2.4c0.2-0.5,0.7-1.2,1.4-2.1c0.7-0.9,1.1-1.6,1.4-2.1c0.4-0.9,0.7-1.8,0.7-2.8
			c0-1.8-0.6-3.3-1.9-4.3c-1.3-1.1-2.9-1.6-4.9-1.6c-2,0-3.6,0.5-4.9,1.6c-1.3,1.1-2,2.6-2,4.5c0,1.2,0.3,2.3,0.9,3.3
			c0.3,0.7,0.9,1.5,1.7,2.5c0.6,0.7,1,1.2,1.2,1.5c0.4,0.6,0.5,1.1,0.5,1.5c0,1.7-1,3-3.1,3.7c-1.7,0.6-3.9,0.8-6.8,0.8
			c-2-0.1-4.3-0.3-6.7-0.8l-3.1-0.5V43.8c3.2,0.7,6.4,1.2,9.6,1.3c6.4,0.2,9.6-1.3,9.6-4.5c0-0.4-0.1-0.9-0.4-1.5
			c-0.1-0.3-0.4-0.8-0.9-1.5c-0.7-1-1.2-1.9-1.4-2.5c-0.5-1.1-0.8-2.2-0.8-3.4c0-1.9,0.7-3.4,2.2-4.6c1.4-1,3.1-1.5,5-1.5
			c2,0,3.6,0.5,4.9,1.6c1.3,1.1,1.9,2.5,1.9,4.4c0,0.9-0.2,1.9-0.7,2.7c-0.2,0.6-0.7,1.3-1.4,2.2c-0.7,0.9-1.1,1.5-1.4,2
			c-0.4,0.8-0.5,1.6-0.5,2.5c0,2,1.1,3.3,3.3,3.8c1.8,0.4,4.3,0.4,7.4-0.2c2.3-0.4,4.7-1.1,7.3-2.1l3.4-1.2l-0.9,3.1
			c-0.6,2.4-1,4.6-1.3,6.6c-0.4,2.8-0.4,5.1-0.1,6.7c0.4,2,1.4,3,2.8,3c0.5,0,1-0.1,1.5-0.3l1.6-1c1-0.7,1.9-1.1,2.5-1.4
			C77.4,57.4,78.5,57.2,79.6,57.2z"/>
	</g>
</g>
</svg>
