<?xml version="1.0" encoding="utf-8"?>
<!-- Generator: Adobe Illustrator 21.1.0, SVG Export Plug-In . SVG Version: 6.00 Build 0)  -->
<svg version="1.1" id="Layer_1" xmlns="http://www.w3.org/2000/svg" xmlns:xlink="http://www.w3.org/1999/xlink" x="0px" y="0px"
	 viewBox="0 0 100 115" style="enable-background:new 0 0 100 115;" xml:space="preserve">
<style type="text/css">
	.st0{fill:#FFFFFF;}
	.st1{fill:#1295D2;}
</style>
<g>
	<g>
		<path class="st0" d="M50,113.5c-1.1,0-2.2-0.3-3.2-0.9L3.2,87.5c-2-1.1-3.2-3.3-3.2-5.5V31.6c0-2.3,1.2-4.4,3.2-5.5L46.8,0.9
			c2-1.1,4.4-1.1,6.4,0L96.8,26c2,1.1,3.2,3.3,3.2,5.5v50.3c0,2.3-1.2,4.4-3.2,5.5l-43.6,25.2C52.2,113.2,51.1,113.5,50,113.5z"/>
	</g>
	<g>
		<path class="st1" d="M55,47.3h13.8v33.3c0,0.7-0.2,1.3-0.7,1.7c-0.5,0.5-1,0.7-1.7,0.7H32.3c-0.7,0-1.3-0.2-1.7-0.7
			c-0.5-0.5-0.7-1-0.7-1.7V33.5c0-0.7,0.2-1.3,0.7-1.7c0.5-0.5,1-0.7,1.7-0.7h20.3v13.8c0,0.7,0.2,1.3,0.7,1.7
			C53.8,47,54.4,47.3,55,47.3z M42.4,71.7l2-2.1c0.1-0.1,0.1-0.3,0.1-0.5s-0.1-0.3-0.2-0.4l-4.1-3.7l4.1-3.7
			c0.1-0.1,0.2-0.2,0.2-0.4c0-0.2,0-0.3-0.1-0.5l-2-2.1c-0.1-0.1-0.2-0.1-0.4-0.1c-0.2,0-0.3,0-0.4,0.1l-6.6,6.2
			c-0.1,0.1-0.2,0.3-0.2,0.4s0.1,0.3,0.2,0.4l6.6,6.2c0.1,0.1,0.2,0.1,0.4,0.1C42.2,71.8,42.3,71.8,42.4,71.7z M47.6,76.8
			c0.1,0.1,0.3,0.1,0.4-0.1c0.1-0.1,0.2-0.2,0.2-0.4L54.5,55c0-0.1,0-0.3-0.1-0.4c-0.1-0.1-0.2-0.2-0.3-0.3l-2.8-0.8
			c-0.1-0.1-0.3-0.1-0.4,0.1c-0.1,0.1-0.2,0.2-0.2,0.4l-6.3,21.4c0,0.1,0,0.3,0.1,0.4c0.1,0.1,0.2,0.2,0.3,0.3L47.6,76.8z
			 M63.9,65.5c0.1-0.1,0.2-0.3,0.2-0.4s-0.1-0.3-0.2-0.4l-6.6-6.2c-0.1-0.1-0.2-0.1-0.4-0.1s-0.3,0-0.4,0.1l-2,2.1
			c-0.1,0.1-0.1,0.3-0.1,0.5c0,0.2,0.1,0.3,0.2,0.4l4.1,3.7l-4.1,3.7c-0.1,0.1-0.2,0.2-0.2,0.4s0,0.3,0.1,0.5l2,2.1
			c0.1,0.1,0.2,0.1,0.4,0.1s0.3,0,0.4-0.1L63.9,65.5z M68.8,43.4c0-0.7-0.2-1.3-0.7-1.7l-9.9-9.9c-0.5-0.5-1-0.7-1.7-0.7h-0.6v13h13
			V43.4z"/>
	</g>
</g>
</svg>
