<?xml version="1.0" encoding="utf-8"?>
<!-- Generator: Adobe Illustrator 21.1.0, SVG Export Plug-In . SVG Version: 6.00 Build 0)  -->
<svg version="1.1" id="Layer_1" xmlns="http://www.w3.org/2000/svg" xmlns:xlink="http://www.w3.org/1999/xlink" x="0px" y="0px"
	 viewBox="0 0 600 260" style="enable-background:new 0 0 600 260;" xml:space="preserve">
<style type="text/css">
	.st0{fill:#FFFFFF;}
	.st1{fill:#F9BA16;}
	.st2{fill:#1B75BA;}
</style>
<g>
	<g>
		<path class="st2" d="M74.9,100.1c0-3.6,0.7-7.2,2-10.7c1.4-3.5,3.3-6.6,6-9.4c2.6-2.8,5.8-5,9.5-6.7c3.7-1.7,8-2.6,12.7-2.6
			c5.7,0,10.7,1.2,14.9,3.5c4.2,2.4,7.3,5.5,9.4,9.4l-12.4,8.8c-0.6-1.4-1.3-2.6-2.2-3.6c-0.9-0.9-1.9-1.7-3-2.2
			c-1.1-0.6-2.3-0.9-3.5-1.2c-1.2-0.2-2.3-0.3-3.5-0.3c-2.3,0-4.3,0.5-6,1.4c-1.7,0.9-3.1,2.1-4.2,3.6c-1.1,1.5-1.9,3.1-2.4,5
			c-0.5,1.9-0.8,3.7-0.8,5.5c0,2.1,0.3,4,0.9,5.9c0.6,1.9,1.5,3.6,2.7,5c1.2,1.4,2.6,2.6,4.3,3.5c1.7,0.9,3.6,1.3,5.7,1.3
			c1.1,0,2.3-0.1,3.4-0.4c1.2-0.3,2.3-0.7,3.4-1.2c1.1-0.6,2.1-1.3,2.9-2.3c0.9-0.9,1.5-2,2-3.4l13.2,7.9c-0.9,2.2-2.2,4.1-4,5.8
			c-1.8,1.7-3.9,3.2-6.2,4.3c-2.3,1.2-4.8,2.1-7.4,2.7c-2.6,0.6-5.2,0.9-7.7,0.9c-4.4,0-8.4-0.9-12-2.6c-3.6-1.7-6.8-4.1-9.4-7
			c-2.6-2.9-4.7-6.2-6.1-9.8C75.6,107.6,74.9,103.8,74.9,100.1z"/>
		<path class="st2" d="M159.7,130.6c-4.5,0-8.6-0.9-12.2-2.6c-3.7-1.7-6.8-4-9.4-6.8c-2.6-2.8-4.6-6-6.1-9.6
			c-1.4-3.6-2.2-7.3-2.2-11.2c0-3.9,0.7-7.6,2.2-11.2c1.5-3.6,3.6-6.8,6.3-9.5c2.7-2.7,5.9-4.9,9.6-6.6s7.7-2.5,12.1-2.5
			c4.5,0,8.6,0.9,12.2,2.6c3.7,1.7,6.8,4,9.4,6.8c2.6,2.8,4.6,6.1,6,9.7c1.4,3.6,2.1,7.3,2.1,11.1c0,3.9-0.7,7.6-2.2,11.2
			c-1.5,3.6-3.6,6.7-6.2,9.5c-2.7,2.7-5.8,5-9.5,6.6C168.2,129.8,164.1,130.6,159.7,130.6z M146.3,100.7c0,2,0.3,3.9,0.8,5.8
			c0.6,1.9,1.4,3.5,2.5,5c1.1,1.4,2.5,2.6,4.2,3.5c1.7,0.9,3.7,1.3,6,1.3c2.3,0,4.4-0.5,6.1-1.4c1.7-0.9,3.1-2.1,4.2-3.6
			c1.1-1.5,1.9-3.2,2.4-5c0.5-1.9,0.8-3.8,0.8-5.7c0-2-0.3-3.9-0.8-5.8c-0.6-1.9-1.4-3.5-2.5-4.9c-1.1-1.4-2.6-2.6-4.2-3.4
			c-1.7-0.9-3.7-1.3-6-1.3c-2.3,0-4.3,0.4-6,1.3c-1.7,0.9-3.1,2.1-4.2,3.5c-1.1,1.5-1.9,3.1-2.5,5
			C146.6,96.8,146.3,98.7,146.3,100.7z"/>
		<path class="st2" d="M239.9,130.1V99l-9.9,21.9h-8.7L211.4,99v31.2h-16.2V71h17.7l12.7,27.8L238.4,71h17.7v59.1H239.9z"/>
		<path class="st2" d="M264.6,130.1V71h25.5c2.9,0,5.6,0.6,8,1.8c2.4,1.2,4.5,2.7,6.3,4.7c1.7,1.9,3.1,4.1,4.1,6.6
			c1,2.5,1.5,5,1.5,7.5c0,2.6-0.5,5.2-1.4,7.6c-0.9,2.5-2.3,4.7-4,6.6c-1.7,1.9-3.7,3.4-6.2,4.6c-2.4,1.1-5.1,1.7-8,1.7h-9.7v18.2
			H264.6z M280.8,97.8h8.6c1,0,1.9-0.5,2.8-1.4c0.9-0.9,1.3-2.6,1.3-5c0-2.4-0.5-4.1-1.5-5c-1-0.9-2-1.3-3-1.3h-8.2V97.8z"/>
		<path class="st2" d="M340.6,116.2c1.9,0,3.5-0.4,4.8-1.2c1.3-0.8,2.4-1.9,3.2-3.3c0.8-1.4,1.4-2.9,1.8-4.7
			c0.4-1.8,0.6-3.6,0.6-5.6V71h16.2v30.4c0,4.1-0.5,8-1.6,11.5c-1.1,3.6-2.7,6.7-4.9,9.3c-2.2,2.6-5,4.7-8.4,6.2
			c-3.4,1.5-7.3,2.2-11.9,2.2c-4.7,0-8.8-0.8-12.1-2.4c-3.4-1.6-6.1-3.7-8.3-6.4c-2.2-2.7-3.7-5.8-4.7-9.3c-1-3.5-1.5-7.3-1.5-11.2
			V71h16.2v30.4c0,1.9,0.2,3.8,0.6,5.6c0.4,1.8,1,3.4,1.8,4.7s1.9,2.4,3.2,3.2C337.2,115.8,338.8,116.2,340.6,116.2z"/>
		<path class="st2" d="M421.1,85.2h-17v45h-16.2v-45h-17.1V71h50.3V85.2z"/>
		<path class="st2" d="M467.5,116v14.2h-42.1V71h41.4v14.2h-25.2v8.3h21.5v13.2h-21.5v9.3H467.5z"/>
		<path class="st2" d="M473.4,130.1V71h27.2c2.9,0,5.6,0.6,8,1.8c2.4,1.2,4.5,2.7,6.3,4.7c1.7,1.9,3.1,4.1,4.1,6.6
			c1,2.5,1.5,5,1.5,7.5c0,3.4-0.7,6.7-2.2,9.6c-1.5,3-3.6,5.4-6.2,7.3l12.5,21.7h-18.3L495.7,112h-6.1v18.2H473.4z M489.7,97.8h10.2
			c1,0,1.9-0.6,2.8-1.7c0.9-1.1,1.3-2.7,1.3-4.7c0-2.1-0.5-3.6-1.5-4.7c-1-1.1-2-1.6-3-1.6h-9.8V97.8z"/>
		<path class="st2" d="M127.6,159.3c-0.2-0.3-1-0.8-2.3-1.7c-1.3-0.8-3-1.7-5-2.5c-2-0.9-4.2-1.7-6.5-2.3c-2.4-0.7-4.7-1-7.1-1
			c-6.5,0-9.7,2.2-9.7,6.5c0,1.3,0.3,2.4,1,3.3c0.7,0.9,1.7,1.7,3.1,2.4c1.4,0.7,3.1,1.3,5.1,1.9c2.1,0.6,4.5,1.3,7.2,2
			c3.8,1,7.1,2.2,10.2,3.4c3,1.2,5.6,2.7,7.7,4.5c2.1,1.8,3.7,4,4.9,6.6c1.1,2.6,1.7,5.7,1.7,9.3c0,4.4-0.8,8.2-2.5,11.2
			c-1.7,3.1-3.8,5.5-6.6,7.4c-2.7,1.9-5.9,3.2-9.4,4.1c-3.5,0.8-7.2,1.3-10.9,1.3c-2.9,0-5.8-0.2-8.8-0.7c-3-0.4-6-1.1-8.8-1.9
			c-2.9-0.8-5.6-1.9-8.3-3c-2.7-1.2-5.2-2.5-7.5-4.1l7.9-15.8c0.3,0.4,1.3,1.1,2.9,2.1c1.6,1,3.6,2.1,6,3.1c2.4,1,5.1,2,8,2.8
			c2.9,0.8,5.9,1.2,8.9,1.2c6.4,0,9.6-1.9,9.6-5.9c0-1.5-0.5-2.7-1.4-3.6c-1-1-2.3-1.8-4-2.6c-1.7-0.8-3.7-1.5-6-2.2
			c-2.3-0.7-4.8-1.4-7.6-2.2c-3.6-1.1-6.7-2.3-9.4-3.6c-2.6-1.3-4.8-2.8-6.6-4.5c-1.7-1.7-3-3.6-3.9-5.9c-0.8-2.2-1.3-4.8-1.3-7.7
			c0-4.1,0.8-7.8,2.3-10.9c1.5-3.2,3.6-5.8,6.3-8c2.6-2.2,5.7-3.8,9.2-4.9c3.5-1.1,7.2-1.7,11.1-1.7c2.7,0,5.4,0.3,8.1,0.8
			c2.6,0.5,5.2,1.2,7.6,2c2.4,0.8,4.7,1.7,6.8,2.8c2.1,1,4,2.1,5.8,3.1L127.6,159.3z"/>
		<path class="st2" d="M141.5,174.9c0-4.7,0.9-9.4,2.6-14.1c1.8-4.7,4.3-8.8,7.7-12.5c3.4-3.7,7.5-6.7,12.4-8.9
			c4.9-2.3,10.4-3.4,16.6-3.4c7.4,0,13.7,1.6,19.2,4.7c5.4,3.2,9.4,7.3,12.1,12.4l-13.9,9.7c-0.9-2.1-2-3.8-3.4-5.1
			c-1.4-1.4-2.9-2.5-4.5-3.3c-1.6-0.8-3.3-1.4-5-1.8c-1.7-0.3-3.3-0.5-5-0.5c-3.5,0-6.5,0.7-9.1,2.1c-2.6,1.4-4.7,3.2-6.4,5.4
			c-1.7,2.2-2.9,4.7-3.8,7.5c-0.8,2.8-1.2,5.6-1.2,8.5c0,3.1,0.5,6.1,1.4,8.9c1,2.9,2.3,5.4,4.1,7.6c1.8,2.2,4,4,6.5,5.2
			c2.5,1.3,5.4,1.9,8.6,1.9c1.6,0,3.3-0.2,5-0.6c1.7-0.4,3.4-1,5-1.9c1.6-0.8,3-1.9,4.4-3.3c1.3-1.4,2.4-3,3.2-5l14.8,8.7
			c-1.2,2.9-2.9,5.4-5.2,7.7c-2.3,2.3-5,4.2-8,5.7c-3,1.5-6.2,2.7-9.6,3.5c-3.4,0.8-6.7,1.2-9.9,1.2c-5.7,0-10.9-1.2-15.6-3.5
			c-4.7-2.3-8.8-5.4-12.3-9.2c-3.4-3.8-6.1-8.2-7.9-13C142.4,184.8,141.5,179.9,141.5,174.9z"/>
		<path class="st2" d="M219.5,214.7v-78.4h18.1v78.4H219.5z"/>
		<path class="st2" d="M305.3,198.8v15.9h-55.1v-78.4h54.1v15.9h-36v15.2h30.9v14.7h-30.9v16.7H305.3z"/>
		<path class="st2" d="M332,169.9v44.8h-18.1v-78.4H328l36.5,46v-46h18.1v78.4h-14.6L332,169.9z"/>
		<path class="st2" d="M390.7,174.9c0-4.7,0.9-9.4,2.6-14.1c1.8-4.7,4.3-8.8,7.7-12.5c3.4-3.7,7.5-6.7,12.4-8.9
			c4.9-2.3,10.4-3.4,16.6-3.4c7.4,0,13.7,1.6,19.2,4.7c5.4,3.2,9.4,7.3,12.1,12.4l-13.9,9.7c-0.9-2.1-2-3.8-3.4-5.1
			c-1.4-1.4-2.9-2.5-4.5-3.3c-1.6-0.8-3.3-1.4-5-1.8c-1.7-0.3-3.3-0.5-5-0.5c-3.5,0-6.5,0.7-9.1,2.1c-2.6,1.4-4.7,3.2-6.4,5.4
			c-1.7,2.2-2.9,4.7-3.8,7.5c-0.8,2.8-1.2,5.6-1.2,8.5c0,3.1,0.5,6.1,1.4,8.9c1,2.9,2.3,5.4,4.1,7.6c1.8,2.2,4,4,6.5,5.2
			c2.5,1.3,5.4,1.9,8.6,1.9c1.6,0,3.3-0.2,5-0.6c1.7-0.4,3.4-1,5-1.9c1.6-0.8,3-1.9,4.4-3.3c1.3-1.4,2.4-3,3.2-5l14.8,8.7
			c-1.2,2.9-2.9,5.4-5.2,7.7c-2.3,2.3-5,4.2-8,5.7c-3,1.5-6.2,2.7-9.6,3.5c-3.4,0.8-6.7,1.2-9.9,1.2c-5.7,0-10.9-1.2-15.6-3.5
			c-4.7-2.3-8.8-5.4-12.3-9.2c-3.4-3.8-6.1-8.2-7.9-13C391.7,184.8,390.7,179.9,390.7,174.9z"/>
		<path class="st2" d="M523.9,198.8v15.9h-55.1v-78.4h54.1v15.9h-36v15.2h30.9v14.7h-30.9v16.7H523.9z"/>
	</g>
	<g>
		<path class="st1" d="M303.2,245.1l21.7-13v3.8L308.3,246l16.6,10.1v3.9l-21.7-12.9V245.1z"/>
		<path class="st1" d="M345.3,259.4v-36.8h24.1v3.2H349v13.5h17.3v3H349v17H345.3z"/>
		<path class="st1" d="M396.1,222.7h3.1l15.3,36.8h-3.8l-4.8-11.5h-16.5l-4.7,11.5h-3.9L396.1,222.7z M405,245.1l-7.4-18.2
			l-7.5,18.2H405z"/>
		<path class="st1" d="M432.7,259.4v-36.8h3.6v36.8H432.7z"/>
		<path class="st1" d="M458.5,259.4v-36.8H474c1.6,0,3,0.3,4.4,1s2.5,1.6,3.4,2.6c1,1.1,1.7,2.3,2.3,3.7c0.5,1.4,0.8,2.8,0.8,4.2
			c0,1.3-0.2,2.6-0.6,3.9c-0.4,1.2-0.9,2.3-1.7,3.3s-1.6,1.8-2.6,2.5c-1,0.7-2.1,1.1-3.4,1.4l9,14.2h-4.1l-8.6-13.6h-10.9v13.6
			H458.5z M462.1,242.7h12c1.1,0,2-0.2,2.9-0.7c0.9-0.5,1.6-1.1,2.3-1.9c0.6-0.8,1.1-1.7,1.4-2.7c0.3-1,0.5-2.1,0.5-3.2
			c0-1.1-0.2-2.2-0.6-3.2c-0.4-1-0.9-1.9-1.6-2.7s-1.5-1.4-2.4-1.8c-0.9-0.4-1.9-0.7-2.9-0.7h-11.7V242.7z"/>
		<path class="st1" d="M525.1,247.1L503.4,260v-3.9L520,246l-16.6-10.1v-3.8l21.7,13V247.1z"/>
	</g>
	<g>
		<path class="st1" d="M156.9,16c-7.4,11.4-9.5,17.8-12.4,25c-2.3,5.7,0.4,7.6-4.2,12.6c-2,2.2-5.7,17.1-10.5,32.2
			c-0.4,0.9-1.5,1.6-2.7,1.6s-2.5-0.8-2.5-3.2v-0.1c0.2-13.4,5.4-24.8,7.9-33.4c0.2-0.9,0.6-2,0.6-2.9c0-0.7-0.2-1.4-1.1-1.8
			c-13.6-5.8-25.9-17.1-32.9-27.6c-0.7-1.1-0.9-2-0.9-2.8c0-3.2,3.3-5.4,5.8-5.4c0.9,0,1.8,0.2,2.3,0.9c8.5,9.9,15.1,19.2,28,26.9
			c0.5,0.2,1.1,0.5,1.5,0.5c1.5,0,3-0.9,3.4-2.3c3-11.2,6.9-18.3,10-25.7c0.4-0.9,1.4-1.4,2.7-1.4c2.5,0,5.6,1.8,5.6,4.3
			C157.7,14.4,157.5,15.2,156.9,16z"/>
		<path class="st1" d="M187,59c-3.4,8.6-9.9,15.5-18.7,15.5c-5.4,0-10.5-2.5-14.5-6.9c-3.2-3.5-4.9-7.9-4.9-11.8
			c0-9,4.7-14.5,11.9-19c4.3-2.7,6.8-3.9,10.2-7.4c2-2.1,4.1-2.9,6-2.9c2.6,0,4.8,1.6,5.6,4c2.2,6.3,6.4,12.2,6.4,19.3
			C189,53.2,188.1,56.4,187,59z M179.8,42.8c-0.4-0.6-0.7-0.8-0.9-0.8c-1.1,0-2.1,2.3-4.2,2.3c-0.9,0-1.8-0.4-2.7-1.1
			c-0.9-0.7-1.6-1.5-2.9-1.5c-0.9,0-2.3,0.6-4.7,2.1c-3.7,2.6-6,5.4-6,10.3c0,4.3,0.8,7.2,3.4,9.3c2,1.8,5.4,2.6,7.8,2.6
			c4.8,0,8.2-2.7,10.9-7.1c1.4-2.2,1.9-4.7,1.9-7.1C182.4,48.4,181.3,45.1,179.8,42.8z"/>
		<path class="st1" d="M238.8,78c-0.7,0-1.4-0.2-1.9-0.6c-3.9-3-5.1-10.3-8.1-16.8c-1.1-2.5-2-4-2.9-4c-0.7,0-1.4,0.8-2.3,2.6
			c-4.1,7.9-8.1,13.4-15.3,13.4c-2.9,0-5.8-0.8-8.3-2.8c-5.1-4.2-6.9-12.6-6.9-22c0-6.8,0.9-14,2.1-20.2c0.2-1.3,1.8-1.9,3.5-1.9
			c2.6,0,5.4,1.3,5.4,3.9c0,0.2,0,0.5-0.1,0.8c-0.8,3.6-1.8,8.6-1.8,14c0,4.8,0.7,10,2.8,15.1c1.1,2.7,2.6,3.6,4,3.6
			c2,0,3.9-1.6,5.1-3.3c4.1-5.3,7.5-11,7.5-18.5c0-0.8-0.1-1.8-0.1-2.8c-0.1-1.9,2.8-3.5,5.4-3.5c2.1,0,4.1,0.9,4.8,3.4
			c3.4,12,6.9,26.6,11.6,30.1c1.5,1.2,2.1,2.5,2.1,3.6C245.3,75.4,241.6,78,238.8,78z"/>
		<path class="st1" d="M288.1,42.4c-4.6,4.7-11.2,5.5-17.1,5.5c-2.8,0-5.5-0.2-7.5-0.2h-0.1c-1.8,0-3.5,1.2-3.4,2.9v0.2
			c0.6,16.5,4.6,16.5,5.3,21.4v0.5c0,2.2-2.3,4.2-4.9,4.2c-1.4,0-2.9-0.6-4.2-2.2c-4.4-5.7-2.1-19-4.2-23.8
			c-0.8-1.9-0.7-3.7-2.5-4.6c-2.2-1.1-3.9-1.5-6.7-3.5c-0.9-0.7-1.4-1.9-1.4-3.2c0-2.1,1.1-4.2,2.8-4.6c0.8-0.1,1.5-0.1,2.2-0.1
			c0.8,0,1.6,0.1,2.7,0.1c1.5,0,3.4-1.1,3.2-2.5c-1.6-9.9-3.5-13.2-3.5-21.7c0-2.2,1.6-3.2,3.6-3.2c3.4,0,8.1,2.7,8.1,6.3
			c0,0.4,0,0.7-0.1,1.1c-0.9,3.6-1.3,6.4-1.3,9.3c0,3.3,0.5,6.5,0.9,10.6c0.2,2,1.6,3,3.5,3.2c3.7,0.1,6.7,0.2,9.1,0.2
			c10,0,10.2-1.2,12.6-2.7c0.7-0.5,1.3-0.6,1.9-0.6c1.5,0,2.5,1.6,2.5,3.4C289.6,40,289.1,41.4,288.1,42.4z"/>
		<path class="st1" d="M334.4,75.9c-1.3,0-2.3-0.5-2.6-1.6c-1.2-7.4-2.6-11.1-5.6-16.8c-2.5-4.7-1.5-7.4-3.9-13
			c-0.5-1.1-1.5-1.9-2.7-1.9c-0.8,0-1.6,0.4-2.2,1.5c-1.9,3.6-4.8,8.3-9.1,13c-4.2,4.6-3.9,9.1-8.4,13.7c-1.1,1.1-2.8,1.6-4.3,1.6
			c-1.8,0-3.3-0.7-3.4-2.3c-0.7-14.3-4.3-38.6-4.3-57.6c0-3.5,0.1-6.9,0.5-10c0.1-1.8,1.5-2.5,3.3-2.5c2.9,0,6.7,2.2,6.7,4.9
			c0,0.4,0,0.7-0.1,1.1c-0.9,2.7-1.3,11.2-1.3,20.6c0,8.6,0.4,17.9,0.9,24c0.2,2.7,1.4,4.7,2.6,4.7c0.4,0,0.6-0.1,0.9-0.5
			c6.3-7.1,9.2-14.5,16.5-22.8c1.5-1.8,3-2.7,4.4-2.7c1.5,0,2.8,1.2,4,3.4c3.3,6.5,6.5,22.5,13.7,35.7c0.5,0.9,0.7,1.8,0.7,2.5
			C340.6,74.1,337,75.9,334.4,75.9z"/>
	</g>
</g>
</svg>
