<?xml version="1.0" encoding="utf-8"?>
<!-- Generator: Adobe Illustrator 21.1.0, SVG Export Plug-In . SVG Version: 6.00 Build 0)  -->
<svg version="1.1" id="Layer_1" xmlns="http://www.w3.org/2000/svg" xmlns:xlink="http://www.w3.org/1999/xlink" x="0px" y="0px"
	 viewBox="0 0 600 260" style="enable-background:new 0 0 600 260;" xml:space="preserve">
<style type="text/css">
	.st0{fill:#FFFFFF;}
	.st1{fill:#F9BA16;}
</style>
<g>
	<g>
		<path class="st0" d="M0,143c0-6.2,1.2-12.4,3.5-18.5c2.4-6.1,5.8-11.5,10.3-16.3c4.5-4.8,10-8.7,16.4-11.7
			c6.4-3,13.8-4.5,22.1-4.5c9.9,0,18.5,2,25.7,6.1c7.3,4.1,12.7,9.5,16.2,16.2l-21.5,15.3c-1-2.5-2.2-4.6-3.8-6.2
			c-1.6-1.6-3.3-2.9-5.3-3.9c-1.9-1-3.9-1.6-6-2c-2.1-0.4-4.1-0.6-6-0.6c-4,0-7.5,0.8-10.5,2.4c-2.9,1.6-5.3,3.7-7.2,6.2
			c-1.9,2.5-3.3,5.4-4.2,8.7c-0.9,3.2-1.4,6.4-1.4,9.6c0,3.6,0.5,7,1.6,10.2c1.1,3.3,2.6,6.2,4.6,8.6c2,2.5,4.5,4.5,7.4,6
			c2.9,1.5,6.2,2.2,9.9,2.2c1.9,0,3.9-0.2,5.9-0.6c2-0.4,4-1.2,5.8-2.2c1.9-1,3.6-2.3,5-3.9c1.5-1.6,2.7-3.5,3.5-5.8l22.9,13.7
			c-1.5,3.7-3.9,7.1-7,10.1c-3.1,3-6.7,5.5-10.7,7.5c-4,2-8.3,3.6-12.8,4.6c-4.6,1.1-9,1.6-13.3,1.6c-7.6,0-14.5-1.5-20.8-4.5
			c-6.3-3-11.7-7-16.3-12c-4.6-5-8.1-10.7-10.6-17C1.2,156,0,149.6,0,143z"/>
		<path class="st0" d="M146.2,195.9c-7.8,0-14.8-1.5-21.2-4.5c-6.3-3-11.8-6.9-16.3-11.7c-4.5-4.9-8-10.4-10.5-16.7
			c-2.5-6.2-3.7-12.7-3.7-19.3c0-6.7,1.3-13.2,3.9-19.5c2.6-6.2,6.2-11.7,10.9-16.5c4.7-4.8,10.2-8.6,16.6-11.4
			c6.4-2.8,13.4-4.3,21-4.3c7.8,0,14.8,1.5,21.2,4.5c6.3,3,11.8,6.9,16.3,11.8c4.5,4.9,8,10.5,10.5,16.7c2.5,6.2,3.7,12.6,3.7,19.2
			c0,6.7-1.3,13.2-3.9,19.4c-2.6,6.2-6.2,11.7-10.8,16.4c-4.6,4.8-10.1,8.6-16.5,11.5C160.8,194.5,153.8,195.9,146.2,195.9z
			 M123,144c0,3.5,0.5,6.8,1.4,10c1,3.2,2.4,6.1,4.3,8.6c1.9,2.5,4.3,4.5,7.3,6.1c2.9,1.5,6.4,2.3,10.5,2.3c4,0,7.5-0.8,10.5-2.4
			c3-1.6,5.4-3.7,7.3-6.2c1.9-2.5,3.3-5.5,4.2-8.7c0.9-3.3,1.4-6.6,1.4-9.9c0-3.5-0.5-6.8-1.4-10c-1-3.2-2.4-6.1-4.4-8.5
			c-2-2.5-4.4-4.4-7.4-5.9c-2.9-1.5-6.4-2.2-10.3-2.2c-4,0-7.5,0.8-10.5,2.3c-2.9,1.5-5.4,3.6-7.3,6.1c-1.9,2.5-3.3,5.4-4.3,8.6
			C123.4,137.4,123,140.7,123,144z"/>
		<path class="st0" d="M206.7,195.1V92.7h39.4c8.5,0,15.9,1.3,22.3,4c6.4,2.7,11.8,6.3,16.1,11c4.3,4.6,7.6,10,9.8,16.2
			c2.2,6.2,3.3,12.8,3.3,19.8c0,7.8-1.2,14.8-3.7,21.1c-2.5,6.3-5.9,11.7-10.5,16.1c-4.5,4.5-9.9,7.9-16.3,10.4
			c-6.3,2.5-13.4,3.7-21.2,3.7H206.7z M269.2,143.7c0-3.9-0.5-7.5-1.6-10.8c-1.1-3.3-2.6-6.1-4.5-8.4c-2-2.3-4.4-4.1-7.3-5.4
			c-2.9-1.3-6.1-1.9-9.7-1.9h-11.2v53.3h11.2c3.7,0,6.9-0.7,9.8-2c2.9-1.3,5.3-3.2,7.3-5.6c2-2.4,3.5-5.2,4.5-8.5
			C268.7,151.1,269.2,147.6,269.2,143.7z"/>
		<path class="st0" d="M306.3,195.1V92.7h28.1v102.4H306.3z"/>
		<path class="st0" d="M376.6,144.7v50.3h-28.1V92.7h21.9l41.1,52v-52h28.1v102.4h-22.3L376.6,144.7z"/>
		<path class="st0" d="M523,186.6c-7.3,6.2-15.7,9.2-25.2,9.2c-6.6,0-13-1.2-19-3.5c-6.1-2.4-11.3-5.8-15.9-10.3
			c-4.5-4.5-8.1-10-10.8-16.6c-2.7-6.5-4-14-4-22.3c0-7.2,1.3-13.9,4-20.1c2.7-6.2,6.4-11.6,11.1-16.1c4.7-4.6,10.3-8.2,16.7-10.8
			c6.4-2.6,13.3-4,20.7-4c4.6,0,9,0.5,13.3,1.5c4.2,1,8.1,2.5,11.7,4.5c3.6,2,6.8,4.3,9.7,7.1c2.9,2.7,5.2,5.8,7.1,9.3l-20.9,16
			c-2-4-5-7.3-9.1-9.7c-4-2.5-8.3-3.7-12.8-3.7c-3.4,0-6.4,0.7-9.2,2c-2.8,1.3-5.2,3.2-7.2,5.6c-2,2.4-3.6,5.3-4.8,8.6
			s-1.7,6.9-1.7,10.9c0,4,0.6,7.7,1.7,11c1.2,3.3,2.8,6.1,4.8,8.4c2.1,2.4,4.5,4.2,7.4,5.5c2.9,1.3,6.1,1.9,9.7,1.9
			c8.2,0,15.4-3.4,21.6-10.1h-17.7v-20.2h42.1v54.5H523V186.6z"/>
	</g>
	<g>
		<path class="st1" d="M152.4,236.4l28.3-17v4.9l-21.6,13.2l21.6,13.2v5.1l-28.3-16.9V236.4z"/>
		<path class="st1" d="M207.4,255v-48h4.7v43.8h27.7v4.2H207.4z"/>
		<path class="st1" d="M296,250.9v4.2h-32.2v-48h31.6v4.2h-26.9v17.3h23.5v4h-23.5v18.3H296z"/>
		<path class="st1" d="M336.7,207h4l19.9,48h-5l-6.2-15h-21.6l-6.2,15h-5.1L336.7,207z M348.3,236.3l-9.7-23.7l-9.8,23.7H348.3z"/>
		<path class="st1" d="M417.3,248c-4.5,4.9-9.6,7.4-15.4,7.4c-3.2,0-6.2-0.7-9-2.1c-2.7-1.4-5.1-3.2-7.1-5.5c-2-2.3-3.6-4.9-4.7-7.8
			c-1.1-2.9-1.7-5.9-1.7-9c0-3.2,0.6-6.3,1.7-9.2c1.1-2.9,2.6-5.5,4.6-7.7c2-2.2,4.3-4,7-5.3c2.7-1.3,5.7-2,8.9-2
			c2.3,0,4.5,0.3,6.4,0.8c1.9,0.5,3.7,1.2,5.2,2.2s2.8,2,3.9,3.3c1.1,1.3,2,2.7,2.8,4.2l-3.6,2.4c-1.6-3-3.6-5.2-6.2-6.6
			c-2.5-1.4-5.4-2.1-8.6-2.1c-2.7,0-5.1,0.6-7.2,1.7s-4,2.6-5.5,4.5c-1.5,1.9-2.7,4-3.5,6.4c-0.8,2.4-1.2,4.9-1.2,7.5
			c0,2.7,0.5,5.3,1.4,7.7c0.9,2.4,2.2,4.6,3.8,6.4s3.5,3.3,5.7,4.4c2.2,1.1,4.6,1.6,7.1,1.6c2.7,0,5.4-0.6,7.9-1.9
			c2.5-1.3,4.9-3.3,7.2-6.1v-8h-10.7v-3.7h14.7V255h-4V248z"/>
		<path class="st1" d="M467.4,251.1c3,0,5.5-0.6,7.5-1.7c2-1.2,3.6-2.7,4.8-4.5c1.2-1.9,2-4,2.5-6.4c0.5-2.4,0.7-4.8,0.7-7.2V207
			h4.7v24.2c0,3.2-0.4,6.3-1.1,9.2c-0.7,2.9-1.9,5.5-3.5,7.7c-1.6,2.2-3.7,4-6.3,5.3c-2.6,1.3-5.7,2-9.4,2c-3.8,0-7-0.7-9.6-2.1
			c-2.6-1.4-4.7-3.2-6.3-5.4c-1.6-2.3-2.7-4.8-3.4-7.7c-0.7-2.9-1-5.9-1-8.9V207h4.7v24.2c0,2.5,0.2,5,0.7,7.4
			c0.5,2.4,1.3,4.5,2.5,6.4c1.2,1.8,2.8,3.3,4.8,4.5C462,250.6,464.5,251.1,467.4,251.1z"/>
		<path class="st1" d="M548.2,250.9v4.2h-32.2v-48h31.6v4.2h-26.9v17.3h23.5v4h-23.5v18.3H548.2z"/>
		<path class="st1" d="M600,238.9l-28.3,16.9v-5.1l21.6-13.2l-21.6-13.2v-4.9l28.3,17V238.9z"/>
	</g>
	<g>
		<path class="st1" d="M106.3,20.9c-9.6,15-12.4,23.2-16.2,32.6c-3.1,7.5,0.5,9.9-5.5,16.5c-2.6,2.9-7.5,22.3-13.7,42.1
			c-0.5,1.2-2,2.1-3.5,2.1c-1.5,0-3.2-1.1-3.2-4.1V110c0.3-17.5,7-32.3,10.4-43.6c0.3-1.2,0.8-2.6,0.8-3.8c0-0.9-0.3-1.8-1.4-2.3
			c-17.7-7.6-33.9-22.3-43-36c-0.9-1.4-1.2-2.6-1.2-3.7c0-4.1,4.3-7,7.6-7c1.2,0,2.3,0.3,3.1,1.2c11.1,13,19.7,25,36.6,35.1
			c0.6,0.3,1.4,0.6,2,0.6c2,0,4-1.2,4.4-3.1c4-14.6,9-24,13.1-33.6c0.5-1.2,1.8-1.8,3.5-1.8c3.2,0,7.3,2.3,7.3,5.6
			C107.4,18.8,107.1,19.8,106.3,20.9z"/>
		<path class="st1" d="M145.7,77c-4.4,11.3-13,20.3-24.4,20.3c-7,0-13.7-3.2-18.9-9C98.2,83.8,96,78,96,72.9
			c0-11.7,6.1-18.9,15.6-24.9c5.6-3.5,8.8-5,13.3-9.6c2.6-2.7,5.3-3.8,7.8-3.8c3.4,0,6.3,2.1,7.3,5.2c2.9,8.2,8.4,15.9,8.4,25.2
			C148.3,69.4,147.1,73.7,145.7,77z M136.2,55.8c-0.5-0.8-0.9-1.1-1.2-1.1c-1.4,0-2.7,3.1-5.5,3.1c-1.2,0-2.3-0.5-3.5-1.4
			c-1.2-0.9-2.1-2-3.8-2c-1.2,0-3.1,0.8-6.1,2.7c-4.9,3.4-7.8,7-7.8,13.4c0,5.6,1.1,9.5,4.4,12.2c2.6,2.3,7,3.4,10.2,3.4
			c6.3,0,10.7-3.5,14.2-9.3c1.8-2.9,2.4-6.1,2.4-9.3C139.6,63.2,138.2,58.9,136.2,55.8z"/>
		<path class="st1" d="M213.3,101.9c-0.9,0-1.8-0.3-2.4-0.8c-5-4-6.7-13.4-10.5-22c-1.4-3.2-2.6-5.2-3.8-5.2c-0.9,0-1.8,1.1-3.1,3.4
			c-5.3,10.4-10.5,17.5-20,17.5c-3.8,0-7.6-1.1-10.8-3.7c-6.7-5.5-9-16.5-9-28.7c0-8.8,1.2-18.3,2.7-26.4c0.3-1.7,2.3-2.4,4.6-2.4
			c3.4,0,7,1.7,7,5c0,0.3,0,0.6-0.2,1.1c-1.1,4.7-2.3,11.3-2.3,18.3c0,6.3,0.9,13.1,3.7,19.7c1.4,3.5,3.4,4.7,5.2,4.7
			c2.6,0,5-2.1,6.7-4.3c5.3-6.9,9.8-14.3,9.8-24.1c0-1.1-0.2-2.3-0.2-3.7c-0.2-2.4,3.7-4.6,7-4.6c2.7,0,5.3,1.2,6.3,4.4
			c4.4,15.7,9,34.8,15.1,39.4c2,1.5,2.7,3.2,2.7,4.7C221.8,98.4,216.9,101.9,213.3,101.9z"/>
		<path class="st1" d="M277.6,55.4c-5.9,6.1-14.6,7.2-22.3,7.2c-3.7,0-7.2-0.3-9.8-0.3h-0.2c-2.3,0-4.6,1.5-4.4,3.8v0.3
			c0.8,21.5,5.9,21.5,6.9,27.9v0.6c0,2.9-3.1,5.5-6.4,5.5c-1.8,0-3.8-0.8-5.5-2.9c-5.8-7.5-2.7-24.9-5.5-31.1
			c-1.1-2.4-0.9-4.9-3.2-5.9c-2.9-1.4-5-2-8.7-4.6c-1.2-0.9-1.8-2.4-1.8-4.1c0-2.7,1.4-5.5,3.7-5.9c1.1-0.2,2-0.2,2.9-0.2
			c1.1,0,2.1,0.2,3.5,0.2c2,0,4.4-1.4,4.1-3.2c-2.1-13-4.6-17.2-4.6-28.4c0-2.9,2.1-4.1,4.7-4.1c4.4,0,10.5,3.5,10.5,8.2
			c0,0.5,0,0.9-0.2,1.4c-1.2,4.7-1.7,8.4-1.7,12.2c0,4.3,0.6,8.5,1.2,13.9c0.3,2.6,2.1,4,4.6,4.1c4.9,0.2,8.7,0.3,11.9,0.3
			c13.1,0,13.3-1.5,16.5-3.5c0.9-0.6,1.7-0.8,2.4-0.8c2,0,3.2,2.1,3.2,4.4C279.6,52.2,279,54,277.6,55.4z"/>
		<path class="st1" d="M338.2,99.2c-1.7,0-3.1-0.6-3.4-2.1c-1.5-9.6-3.4-14.5-7.3-22c-3.2-6.1-2-9.6-5-16.9c-0.6-1.4-2-2.4-3.5-2.4
			c-1.1,0-2.1,0.5-2.9,2c-2.4,4.7-6.3,10.8-11.9,16.9c-5.5,5.9-5,11.9-11,17.8c-1.4,1.4-3.7,2.1-5.6,2.1c-2.3,0-4.3-0.9-4.4-3.1
			c-0.9-18.6-5.6-50.3-5.6-75.2c0-4.6,0.2-9,0.6-13.1c0.2-2.3,2-3.2,4.3-3.2c3.8,0,8.7,2.9,8.7,6.4c0,0.5,0,0.9-0.2,1.4
			c-1.2,3.5-1.7,14.6-1.7,26.9c0,11.3,0.5,23.3,1.2,31.3c0.3,3.5,1.8,6.1,3.4,6.1c0.5,0,0.8-0.2,1.2-0.6
			c8.2-9.3,12.1-18.9,21.5-29.8c2-2.3,4-3.5,5.8-3.5c2,0,3.7,1.5,5.2,4.4c4.3,8.5,8.5,29.4,17.8,46.7c0.6,1.2,0.9,2.3,0.9,3.2
			C346.3,96.7,341.6,99.2,338.2,99.2z"/>
	</g>
</g>
</svg>
