<?xml version="1.0" encoding="utf-8"?>
<!-- Generator: Adobe Illustrator 21.1.0, SVG Export Plug-In . SVG Version: 6.00 Build 0)  -->
<svg version="1.1" id="Layer_1" xmlns="http://www.w3.org/2000/svg" xmlns:xlink="http://www.w3.org/1999/xlink" x="0px" y="0px"
	 viewBox="0 0 600 260" style="enable-background:new 0 0 600 260;" xml:space="preserve">
<style type="text/css">
	.st0{fill:#FFFFFF;}
	.st1{fill:#F9BA16;}
	.st2{fill:#1B75BA;}
</style>
<g>
	<g>
		<path class="st2" d="M0,142.2c0-6.2,1.2-12.3,3.5-18.3c2.3-6,5.8-11.4,10.2-16.2c4.5-4.8,9.9-8.6,16.3-11.6
			c6.4-3,13.7-4.4,21.9-4.4c9.8,0,18.4,2,25.6,6.1c7.2,4.1,12.6,9.4,16.1,16.1L72.4,129c-1-2.5-2.2-4.5-3.8-6.2
			c-1.6-1.6-3.3-2.9-5.2-3.9c-1.9-1-3.9-1.6-5.9-2c-2.1-0.4-4-0.6-5.9-0.6c-4,0-7.5,0.8-10.4,2.4c-2.9,1.6-5.3,3.6-7.2,6.2
			c-1.9,2.5-3.2,5.4-4.2,8.6c-0.9,3.2-1.4,6.4-1.4,9.5c0,3.5,0.5,6.9,1.6,10.2c1,3.2,2.6,6.1,4.6,8.6c2,2.5,4.5,4.5,7.4,5.9
			c2.9,1.5,6.2,2.2,9.8,2.2c1.9,0,3.9-0.2,5.9-0.6c2-0.4,3.9-1.1,5.8-2.1c1.9-1,3.5-2.3,5-3.9c1.5-1.6,2.7-3.5,3.5-5.8l22.8,13.6
			c-1.5,3.7-3.8,7.1-7,10c-3.1,3-6.6,5.4-10.6,7.5c-4,2-8.2,3.5-12.8,4.6c-4.5,1-9,1.6-13.3,1.6c-7.5,0-14.4-1.5-20.7-4.5
			c-6.3-3-11.7-7-16.2-12c-4.5-5-8-10.6-10.5-16.9C1.2,155.1,0,148.7,0,142.2z"/>
		<path class="st2" d="M145.3,194.7c-7.7,0-14.8-1.5-21.1-4.4c-6.3-3-11.7-6.9-16.2-11.7c-4.5-4.8-8-10.3-10.5-16.6
			c-2.5-6.2-3.7-12.6-3.7-19.2c0-6.7,1.3-13.1,3.9-19.3c2.6-6.2,6.2-11.7,10.8-16.4c4.6-4.7,10.1-8.5,16.5-11.3
			c6.4-2.8,13.3-4.2,20.8-4.2c7.7,0,14.8,1.5,21.1,4.4c6.3,3,11.7,6.9,16.2,11.8c4.5,4.9,8,10.4,10.4,16.6
			c2.4,6.2,3.7,12.6,3.7,19.1c0,6.7-1.3,13.1-3.9,19.3c-2.6,6.2-6.2,11.6-10.7,16.3c-4.6,4.7-10.1,8.5-16.4,11.4
			C159.8,193.3,152.8,194.7,145.3,194.7z M122.2,143.2c0,3.4,0.5,6.8,1.4,10c1,3.2,2.4,6,4.3,8.5c1.9,2.5,4.3,4.5,7.2,6
			c2.9,1.5,6.4,2.3,10.4,2.3s7.5-0.8,10.5-2.4c3-1.6,5.4-3.6,7.2-6.2c1.9-2.5,3.2-5.4,4.2-8.7c0.9-3.2,1.4-6.5,1.4-9.9
			c0-3.4-0.5-6.8-1.4-10c-1-3.2-2.4-6-4.4-8.5c-2-2.4-4.4-4.4-7.3-5.9c-2.9-1.5-6.3-2.2-10.2-2.2c-4,0-7.5,0.8-10.4,2.3
			c-2.9,1.5-5.3,3.6-7.2,6.1c-1.9,2.5-3.3,5.4-4.2,8.6C122.7,136.5,122.2,139.8,122.2,143.2z"/>
		<path class="st2" d="M205.5,193.9V92.1h39.1c8.4,0,15.8,1.3,22.2,4c6.4,2.7,11.8,6.3,16,10.9c4.3,4.6,7.5,10,9.7,16.1
			c2.2,6.2,3.3,12.7,3.3,19.7c0,7.7-1.2,14.7-3.7,21c-2.4,6.3-5.9,11.6-10.4,16c-4.5,4.4-9.9,7.9-16.2,10.3
			c-6.3,2.4-13.3,3.7-21.1,3.7H205.5z M267.5,142.9c0-3.9-0.5-7.5-1.6-10.7c-1.1-3.2-2.6-6-4.5-8.3c-2-2.3-4.4-4.1-7.2-5.4
			c-2.9-1.3-6.1-1.9-9.6-1.9h-11.2v53h11.2c3.6,0,6.9-0.7,9.7-2c2.9-1.3,5.3-3.2,7.2-5.6c2-2.4,3.4-5.2,4.4-8.5
			C267,150.2,267.5,146.7,267.5,142.9z"/>
		<path class="st2" d="M304.5,193.9V92.1h27.9v101.7H304.5z"/>
		<path class="st2" d="M374.3,143.9v50h-27.9V92.1h21.8l40.8,51.7V92.1h27.9v101.7h-22.2L374.3,143.9z"/>
		<path class="st2" d="M519.9,185.4c-7.3,6.1-15.6,9.2-25.1,9.2c-6.6,0-12.9-1.2-18.9-3.5c-6-2.3-11.3-5.8-15.8-10.2
			c-4.5-4.5-8.1-10-10.7-16.5c-2.7-6.5-4-13.9-4-22.2c0-7.2,1.3-13.8,4-20c2.7-6.2,6.4-11.5,11-16c4.7-4.5,10.2-8.1,16.5-10.7
			c6.4-2.6,13.2-3.9,20.6-3.9c4.6,0,9,0.5,13.2,1.5c4.2,1,8.1,2.5,11.7,4.4c3.6,2,6.8,4.3,9.7,7c2.9,2.7,5.2,5.8,7,9.2l-20.8,15.9
			c-2-4-5-7.2-9-9.7c-4-2.4-8.3-3.7-12.8-3.7c-3.3,0-6.4,0.7-9.2,2c-2.8,1.3-5.2,3.2-7.2,5.6c-2,2.4-3.6,5.2-4.7,8.5
			c-1.1,3.3-1.7,6.9-1.7,10.8c0,4,0.6,7.6,1.7,10.9c1.1,3.2,2.7,6,4.8,8.4c2.1,2.3,4.5,4.2,7.4,5.4c2.9,1.3,6.1,1.9,9.6,1.9
			c8.1,0,15.3-3.3,21.5-10h-17.6v-20.1h41.8v54.2h-23.1V185.4z"/>
	</g>
	<g>
		<path class="st1" d="M203.1,235l28.2-16.9v4.9l-21.5,13.2l21.5,13.1v5l-28.2-16.8V235z"/>
		<path class="st1" d="M254.6,229.3c0-2.9,0.5-5.7,1.5-8.6c1-2.8,2.5-5.4,4.4-7.6c1.9-2.2,4.3-4.1,7.1-5.5c2.8-1.4,6-2.1,9.6-2.1
			c4.3,0,7.9,1,10.9,2.9c3,1.9,5.3,4.4,6.7,7.5l-3.7,2.3c-0.8-1.6-1.7-2.9-2.8-4c-1.1-1.1-2.3-1.9-3.5-2.6c-1.3-0.7-2.6-1.2-3.9-1.4
			c-1.3-0.3-2.7-0.4-4-0.4c-2.9,0-5.4,0.6-7.6,1.7c-2.2,1.2-4,2.7-5.5,4.6c-1.5,1.9-2.6,4-3.4,6.3c-0.8,2.4-1.1,4.7-1.1,7.2
			c0,2.6,0.5,5.2,1.4,7.6c0.9,2.4,2.2,4.6,3.8,6.4c1.6,1.9,3.5,3.3,5.6,4.4c2.2,1.1,4.5,1.6,7.1,1.6c1.3,0,2.7-0.2,4.1-0.5
			c1.4-0.3,2.8-0.9,4.1-1.6c1.3-0.7,2.5-1.7,3.7-2.8c1.1-1.1,2.1-2.4,2.8-4l3.9,2c-0.8,1.8-1.8,3.4-3.2,4.7
			c-1.4,1.4-2.9,2.5-4.6,3.5c-1.7,0.9-3.5,1.7-5.4,2.2s-3.8,0.7-5.6,0.7c-3.3,0-6.3-0.7-9-2.2c-2.7-1.4-5.1-3.3-7.1-5.6
			c-2-2.3-3.5-4.9-4.6-7.9C255.2,235.4,254.6,232.4,254.6,229.3z"/>
		<path class="st1" d="M334.8,205.8h4l19.8,47.7h-5l-6.2-14.9H326l-6.1,14.9h-5L334.8,205.8z M346.3,234.9l-9.6-23.6l-9.7,23.6
			H346.3z"/>
		<path class="st1" d="M424.5,253.5v-39.2l-17.4,30.3h-2.8l-17.4-30.3v39.2h-4.7v-47.7h4.8l18.6,32.7l18.7-32.7h4.8v47.7H424.5z"/>
		<path class="st1" d="M458,253.5v-47.7h19.8c2.1,0,4,0.4,5.7,1.3c1.7,0.9,3.2,2,4.5,3.4c1.3,1.4,2.2,3,3,4.8
			c0.7,1.8,1.1,3.6,1.1,5.4c0,2-0.3,3.9-1,5.7c-0.7,1.8-1.6,3.4-2.8,4.8c-1.2,1.4-2.7,2.5-4.3,3.4c-1.7,0.9-3.6,1.3-5.6,1.3h-15.5
			v17.6H458z M462.7,231.7h15.3c1.4,0,2.7-0.3,3.8-0.9c1.1-0.6,2.1-1.4,2.9-2.4c0.8-1,1.4-2.2,1.9-3.5c0.4-1.3,0.7-2.7,0.7-4.1
			c0-1.5-0.3-2.9-0.8-4.2c-0.5-1.3-1.2-2.5-2.1-3.5c-0.9-1-1.9-1.8-3.1-2.3c-1.2-0.6-2.4-0.8-3.7-0.8h-14.8V231.7z"/>
		<path class="st1" d="M544.4,214.7c-1.3-1.5-3.1-2.8-5.4-3.7c-2.2-0.9-4.8-1.4-7.7-1.4c-4.2,0-7.3,0.8-9.2,2.4
			c-1.9,1.6-2.9,3.8-2.9,6.5c0,1.4,0.3,2.6,0.8,3.5c0.5,0.9,1.3,1.7,2.4,2.4c1.1,0.7,2.5,1.3,4.1,1.7c1.7,0.5,3.7,1,5.9,1.5
			c2.6,0.5,4.8,1.1,6.9,1.8c2,0.7,3.8,1.5,5.2,2.5c1.4,1,2.5,2.2,3.3,3.7c0.8,1.4,1.1,3.2,1.1,5.4c0,2.2-0.4,4.1-1.3,5.7
			c-0.9,1.6-2,3-3.6,4c-1.5,1.1-3.3,1.9-5.4,2.4c-2.1,0.5-4.4,0.8-6.9,0.8c-7.4,0-13.8-2.3-19.2-6.9l2.4-3.8
			c0.8,0.9,1.9,1.7,3.1,2.6c1.2,0.8,2.5,1.5,4,2.1c1.5,0.6,3,1.1,4.7,1.4c1.7,0.3,3.4,0.5,5.2,0.5c3.8,0,6.8-0.7,8.9-2
			s3.2-3.4,3.2-6.2c0-1.5-0.3-2.7-0.9-3.7c-0.6-1-1.5-1.9-2.7-2.6c-1.2-0.7-2.7-1.4-4.5-1.9c-1.8-0.5-3.9-1.1-6.2-1.6
			c-2.5-0.6-4.7-1.2-6.6-1.8c-1.9-0.6-3.5-1.4-4.8-2.4c-1.3-0.9-2.3-2.1-2.9-3.4c-0.6-1.3-1-2.9-1-4.9c0-2.2,0.4-4.2,1.2-5.9
			c0.8-1.7,2-3.2,3.5-4.3c1.5-1.1,3.3-2,5.4-2.6c2.1-0.6,4.3-0.9,6.9-0.9c3.2,0,6,0.5,8.5,1.4c2.5,1,4.7,2.3,6.8,4.1L544.4,214.7z"
			/>
		<path class="st1" d="M600,237.4l-28.2,16.8v-5l21.5-13.1l-21.5-13.2V218L600,235V237.4z"/>
	</g>
	<g>
		<path class="st1" d="M105.7,20.8c-9.6,14.9-12.3,23-16.1,32.5c-3,7.4,0.5,9.9-5.5,16.4c-2.6,2.9-7.4,22.1-13.6,41.9
			c-0.5,1.2-2,2.1-3.5,2.1c-1.5,0-3.2-1.1-3.2-4.1v-0.2c0.3-17.4,7-32.1,10.3-43.4c0.3-1.2,0.8-2.6,0.8-3.8c0-0.9-0.3-1.8-1.4-2.3
			C56,52.3,39.9,37.8,30.8,24.1c-0.9-1.4-1.2-2.6-1.2-3.6c0-4.1,4.2-7,7.6-7c1.2,0,2.3,0.3,3,1.2c11.1,12.9,19.6,24.9,36.4,34.9
			c0.6,0.3,1.4,0.6,2,0.6c2,0,3.9-1.2,4.4-3c3.9-14.6,8.9-23.8,13-33.4c0.5-1.2,1.8-1.8,3.5-1.8c3.2,0,7.3,2.3,7.3,5.6
			C106.8,18.7,106.4,19.7,105.7,20.8z"/>
		<path class="st1" d="M144.8,76.6c-4.4,11.2-12.9,20.2-24.3,20.2c-7,0-13.6-3.2-18.8-8.9c-4.1-4.5-6.4-10.3-6.4-15.3
			c0-11.7,6.1-18.8,15.5-24.7c5.6-3.5,8.8-5,13.2-9.6c2.6-2.7,5.3-3.8,7.7-3.8c3.3,0,6.2,2.1,7.3,5.2c2.9,8.2,8.3,15.8,8.3,25
			C147.4,69,146.2,73.2,144.8,76.6z M135.4,55.5c-0.5-0.8-0.9-1.1-1.2-1.1c-1.4,0-2.7,3-5.5,3c-1.2,0-2.3-0.5-3.5-1.4s-2.1-2-3.8-2
			c-1.2,0-3,0.8-6.1,2.7c-4.9,3.3-7.7,7-7.7,13.3c0,5.6,1.1,9.4,4.4,12.1c2.6,2.3,7,3.3,10.2,3.3c6.2,0,10.6-3.5,14.1-9.3
			c1.8-2.9,2.4-6.1,2.4-9.2C138.7,62.8,137.4,58.5,135.4,55.5z"/>
		<path class="st1" d="M212,101.3c-0.9,0-1.8-0.3-2.4-0.8c-5-3.9-6.7-13.3-10.5-21.8c-1.4-3.2-2.6-5.2-3.8-5.2c-0.9,0-1.8,1.1-3,3.3
			c-5.3,10.3-10.5,17.4-19.9,17.4c-3.8,0-7.6-1.1-10.8-3.6c-6.7-5.5-8.9-16.4-8.9-28.5c0-8.8,1.2-18.2,2.7-26.2
			c0.3-1.7,2.3-2.4,4.5-2.4c3.3,0,7,1.7,7,5c0,0.3,0,0.6-0.2,1.1c-1.1,4.7-2.3,11.2-2.3,18.2c0,6.2,0.9,13,3.6,19.6
			c1.4,3.5,3.3,4.7,5.2,4.7c2.6,0,5-2.1,6.7-4.2c5.3-6.8,9.7-14.3,9.7-24c0-1.1-0.2-2.3-0.2-3.6c-0.2-2.4,3.6-4.5,7-4.5
			c2.7,0,5.3,1.2,6.2,4.4c4.4,15.6,8.9,34.6,15,39.1c2,1.5,2.7,3.2,2.7,4.7C220.5,97.8,215.6,101.3,212,101.3z"/>
		<path class="st1" d="M276,55c-5.9,6.1-14.6,7.1-22.1,7.1c-3.6,0-7.1-0.3-9.7-0.3H244c-2.3,0-4.5,1.5-4.4,3.8V66
			c0.8,21.4,5.9,21.4,6.8,27.7v0.6c0,2.9-3,5.5-6.4,5.5c-1.8,0-3.8-0.8-5.5-2.9c-5.8-7.4-2.7-24.7-5.5-30.9
			c-1.1-2.4-0.9-4.9-3.2-5.9c-2.9-1.4-5-2-8.6-4.5c-1.2-0.9-1.8-2.4-1.8-4.1c0-2.7,1.4-5.5,3.6-5.9c1.1-0.2,2-0.2,2.9-0.2
			c1.1,0,2.1,0.2,3.5,0.2c2,0,4.4-1.4,4.1-3.2c-2.1-12.9-4.5-17.1-4.5-28.2c0-2.9,2.1-4.1,4.7-4.1c4.4,0,10.5,3.5,10.5,8.2
			c0,0.5,0,0.9-0.2,1.4c-1.2,4.7-1.7,8.3-1.7,12.1c0,4.2,0.6,8.5,1.2,13.8c0.3,2.6,2.1,3.9,4.5,4.1c4.9,0.2,8.6,0.3,11.8,0.3
			c13,0,13.2-1.5,16.4-3.5c0.9-0.6,1.7-0.8,2.4-0.8c2,0,3.2,2.1,3.2,4.4C277.9,51.9,277.3,53.7,276,55z"/>
		<path class="st1" d="M336.2,98.6c-1.7,0-3-0.6-3.3-2.1c-1.5-9.6-3.3-14.4-7.3-21.8c-3.2-6.1-2-9.6-5-16.8c-0.6-1.4-2-2.4-3.5-2.4
			c-1.1,0-2.1,0.5-2.9,2c-2.4,4.7-6.2,10.8-11.8,16.8c-5.5,5.9-5,11.8-10.9,17.7c-1.4,1.4-3.6,2.1-5.6,2.1c-2.3,0-4.2-0.9-4.4-3
			c-0.9-18.5-5.6-50-5.6-74.8c0-4.5,0.2-8.9,0.6-13c0.2-2.3,2-3.2,4.2-3.2c3.8,0,8.6,2.9,8.6,6.4c0,0.5,0,0.9-0.2,1.4
			c-1.2,3.5-1.7,14.6-1.7,26.7c0,11.2,0.5,23.2,1.2,31.1c0.3,3.5,1.8,6.1,3.3,6.1c0.5,0,0.8-0.2,1.2-0.6c8.2-9.3,12-18.8,21.4-29.6
			c2-2.3,3.9-3.5,5.8-3.5c2,0,3.6,1.5,5.2,4.4c4.2,8.5,8.5,29.3,17.7,46.4c0.6,1.2,0.9,2.3,0.9,3.2
			C344.2,96.1,339.5,98.6,336.2,98.6z"/>
	</g>
</g>
</svg>
